<?xml version="1.0" standalone="no"?>
<!DOCTYPE svg PUBLIC "-//W3C//DTD SVG 20010904//EN"
 "http://www.w3.org/TR/2001/REC-SVG-20010904/DTD/svg10.dtd">
<svg version="1.0" xmlns="http://www.w3.org/2000/svg"
 width="684.000000pt" height="451.000000pt" viewBox="0 0 684.000000 451.000000"
 preserveAspectRatio="xMidYMid meet">

<g transform="translate(0.000000,451.000000) scale(0.100000,-0.100000)"
fill="#000000" stroke="none">
<path d="M0 2255 l0 -2255 3415 0 3415 0 0 2255 0 2255 -3415 0 -3415 0 0
-2255z m3691 1207 c479 -117 843 -494 934 -967 61 -314 3 -627 -167 -902 -62
-101 -249 -297 -341 -357 -228 -149 -447 -216 -703 -216 -212 0 -383 42 -574
142 -323 167 -556 475 -636 839 -9 41 -18 139 -21 219 -8 228 30 399 133 600
63 123 116 196 218 301 99 102 189 168 316 233 132 67 226 98 400 130 14 2 99
3 190 2 126 -3 185 -8 251 -24z"/>
<path d="M3302 3285 c1 -31 2 -33 5 -12 l4 29 54 -59 54 -58 -1 50 c-1 46 -2
47 -5 10 l-4 -40 -54 60 -54 60 1 -40z"/>
<path d="M3528 3313 c7 -3 16 -2 19 1 4 3 -2 6 -13 5 -11 0 -14 -3 -6 -6z"/>
<path d="M3561 3283 c1 -23 2 -24 6 -6 2 13 13 24 26 26 18 4 17 5 -5 6 -24 1
-28 -3 -27 -26z"/>
<path d="M3130 3280 c0 -5 7 -7 15 -4 8 4 15 8 15 10 0 2 -7 4 -15 4 -8 0 -15
-4 -15 -10z"/>
<path d="M3705 3233 c-16 -20 -36 -46 -44 -57 -14 -20 -14 -20 5 -5 10 9 26
14 34 12 13 -4 13 -3 0 6 -12 8 -12 13 4 30 10 11 23 18 27 15 5 -3 9 4 9 15
0 26 1 27 -35 -16z"/>
<path d="M3141 3244 c0 -11 3 -14 6 -6 3 7 2 16 -1 19 -3 4 -6 -2 -5 -13z"/>
<path d="M2983 3234 c-37 -16 -43 -25 -12 -17 12 4 25 0 31 -8 8 -11 9 -10 4
3 -3 10 2 22 12 27 25 15 2 12 -35 -5z"/>
<path d="M3552 3220 c0 -19 2 -27 5 -17 2 9 2 25 0 35 -3 9 -5 1 -5 -18z"/>
<path d="M3173 3223 c-14 -3 -23 -11 -22 -21 0 -11 3 -12 6 -4 2 6 11 12 18
12 8 0 17 5 20 10 3 6 5 9 3 9 -2 -1 -13 -4 -25 -6z"/>
<path d="M3312 3200 c0 -14 2 -19 5 -12 2 6 2 18 0 25 -3 6 -5 1 -5 -13z"/>
<path d="M3732 3185 c-7 -8 -8 -15 -3 -15 5 0 12 -10 14 -22 3 -14 5 -9 6 15
1 42 1 42 -17 22z"/>
<path d="M3011 3185 c0 -5 8 -26 19 -45 11 -19 19 -30 19 -25 0 6 -8 26 -19
45 -11 19 -19 31 -19 25z"/>
<path d="M3864 3168 c-19 -23 -19 -23 2 -5 23 19 55 22 87 6 21 -10 21 -10 3
5 -28 23 -70 20 -92 -6z"/>
<path d="M3161 3167 c-1 -14 4 -16 27 -11 36 9 44 18 10 12 -15 -3 -29 0 -32
6 -2 6 -5 3 -5 -7z"/>
<path d="M3842 3120 c0 -14 2 -19 5 -12 2 6 2 18 0 25 -3 6 -5 1 -5 -13z"/>
<path d="M3864 3073 c13 -16 29 -23 50 -22 l31 2 -30 4 c-16 3 -39 12 -50 21
-20 17 -20 17 -1 -5z"/>
<path d="M4040 3030 c-23 -27 -40 -50 -37 -50 3 0 24 23 47 50 23 28 40 50 37
50 -3 0 -24 -22 -47 -50z"/>
<path d="M2710 3055 c-20 -24 6 -48 45 -42 42 6 55 -1 55 -28 0 -15 -8 -26
-21 -30 -11 -4 -18 -9 -16 -12 12 -11 47 19 47 41 0 33 -20 46 -62 40 -42 -7
-61 12 -33 33 11 7 14 13 8 13 -6 0 -16 -7 -23 -15z"/>
<path d="M3275 3006 c-164 -33 -272 -91 -396 -216 -82 -81 -103 -109 -142
-190 -66 -135 -82 -200 -81 -345 1 -145 24 -242 87 -358 101 -186 260 -315
467 -378 107 -32 291 -33 405 0 117 33 226 94 316 179 132 124 205 260 235
437 21 123 10 250 -34 373 -42 118 -86 186 -187 287 -76 76 -105 98 -185 138
-52 26 -122 54 -155 62 -86 22 -246 27 -330 11z m427 -166 c160 -79 293 -151
306 -166 15 -17 22 -38 22 -67 0 -40 -30 -173 -44 -195 -6 -10 -45 -23 -333
-112 l-103 -32 0 -68 c0 -49 -4 -71 -16 -81 -29 -24 -48 1 -54 68 l-5 60 -105
-32 c-58 -19 -165 -52 -237 -75 -124 -38 -133 -43 -133 -66 0 -34 -29 -43 -51
-16 -9 12 -20 22 -23 22 -3 0 -7 -69 -8 -152 l-3 -153 -25 0 -25 0 -3 138 c-1
78 -7 137 -12 137 -5 0 -30 -5 -55 -12 -59 -16 -65 -8 -65 93 l0 75 56 65 c37
43 53 70 50 82 -6 23 35 67 62 67 12 0 58 45 120 115 80 89 102 121 102 143 0
32 12 46 50 57 14 4 39 19 55 34 27 24 30 31 27 79 -3 50 -1 55 36 93 67 67
82 63 414 -101z m-494 38 c-9 -27 -24 -39 -80 -67 -82 -41 -182 -129 -234
-208 -37 -56 -94 -196 -94 -232 0 -9 -14 -32 -31 -51 l-30 -35 5 61 c21 244
218 479 473 563 0 1 -4 -14 -9 -31z m866 -461 c20 -80 23 -205 6 -297 -24
-138 -141 -323 -255 -406 -71 -51 -199 -109 -273 -123 -176 -34 -364 2 -507
95 -73 47 -94 74 -88 106 l5 27 56 -46 c191 -155 448 -186 666 -79 106 52 179
113 239 199 91 129 124 253 113 421 -4 62 -2 116 5 139 6 22 12 37 13 35 2 -1
11 -34 20 -71z"/>
<path d="M3245 2767 c-16 -13 -14 -15 28 -25 63 -16 76 -33 73 -88 -3 -50 -11
-58 -69 -74 -46 -13 -103 -4 -138 20 l-27 19 -80 -92 -80 -92 40 -12 c60 -18
76 -37 75 -85 -3 -59 -38 -83 -118 -82 -45 1 -67 6 -89 22 l-29 22 -45 -52
c-54 -62 -49 -78 19 -60 81 21 75 36 75 -198 0 -133 4 -210 10 -210 6 0 10 78
10 215 l0 215 26 10 c14 6 27 10 30 10 2 0 4 -38 4 -85 0 -50 4 -85 10 -85 6
0 10 36 10 88 l0 88 179 52 c99 29 184 52 190 52 6 0 11 -12 11 -27 0 -16 5
-35 10 -43 9 -13 11 -13 20 0 5 8 10 32 10 52 0 34 3 38 38 47 64 18 62 23 62
-115 0 -114 2 -125 18 -122 15 3 17 19 20 135 2 126 3 131 25 137 34 9 37 8
37 -20 0 -34 23 -26 30 11 5 29 8 30 183 80 31 9 57 20 57 24 0 8 -105 61
-120 61 -6 0 -8 -11 -4 -24 12 -49 -84 -88 -164 -67 -49 14 -64 31 -65 74 -1
47 9 66 43 81 l31 13 -155 71 c-85 40 -158 72 -163 72 -5 0 -17 -6 -28 -13z"/>
<path d="M3923 2660 c-29 -12 -63 -67 -62 -100 0 -21 3 -18 15 14 17 48 41 76
65 76 10 0 21 5 24 10 7 12 -12 12 -42 0z"/>
<path d="M3136 2643 c-12 -12 -5 -23 24 -38 57 -29 160 -12 168 28 3 15 0 16
-23 7 -33 -13 -106 -13 -138 -1 -14 6 -28 7 -31 4z"/>
<path d="M3534 2528 c-22 -35 113 -64 166 -36 30 16 43 56 14 43 -31 -14 -112
-18 -144 -7 -20 8 -32 8 -36 0z"/>
<path d="M2854 2318 c-22 -35 113 -64 166 -36 30 16 43 55 14 43 -34 -14 -112
-18 -143 -7 -21 7 -33 8 -37 0z"/>
<path d="M4122 2964 c-12 -8 -22 -23 -21 -32 0 -14 2 -14 6 -2 8 24 34 40 64
40 30 0 47 -16 59 -57 7 -22 8 -24 9 -7 1 12 -8 33 -20 48 -24 30 -63 34 -97
10z"/>
<path d="M2596 2879 c29 -56 56 -96 49 -72 -9 32 20 72 48 67 21 -4 21 -4 2 5
-23 11 -51 14 -42 5 8 -8 -10 -44 -22 -44 -6 0 -31 43 -31 55 0 2 10 1 23 -1
20 -4 21 -4 2 5 -39 19 -47 13 -29 -20z"/>
<path d="M4101 2889 c-1 -9 7 -23 17 -30 15 -12 16 -12 6 1 -6 8 -14 22 -17
30 -5 13 -6 12 -6 -1z"/>
<path d="M4201 2860 c-13 -11 -19 -20 -14 -20 6 0 18 9 28 20 23 25 17 25 -14
0z"/>
<path d="M4304 2794 c-10 -8 -13 -13 -6 -9 6 3 12 0 12 -7 0 -8 5 -6 11 5 15
25 7 30 -17 11z"/>
<path d="M4240 2760 c-19 -11 -31 -19 -27 -20 11 0 67 29 67 35 0 7 -1 7 -40
-15z"/>
<path d="M2471 2746 c-15 -16 -21 -32 -18 -48 4 -22 4 -22 6 3 1 26 22 51 51
62 13 5 13 6 -1 6 -8 1 -26 -10 -38 -23z"/>
<path d="M4292 2735 c-17 -37 -14 -45 4 -12 9 16 14 31 11 33 -2 2 -9 -7 -15
-21z"/>
<path d="M2581 2683 c-3 -40 -69 -56 -105 -25 -21 17 -21 17 -2 -5 11 -14 30
-23 46 -23 34 0 75 31 67 51 -3 8 -6 9 -6 2z"/>
<path d="M4266 2675 c-11 -31 -1 -34 30 -9 10 8 13 12 5 8 -7 -3 -17 -1 -21 6
-5 8 -9 7 -14 -5z"/>
<path d="M4365 2589 c-27 -9 -44 -18 -36 -18 8 -1 20 -9 27 -18 12 -17 13 -16
8 3 -5 17 1 24 25 32 22 8 31 7 35 -1 3 -9 5 -9 5 0 2 20 -12 21 -64 2z"/>
<path d="M4295 2548 c4 -13 12 -27 17 -33 5 -6 5 1 -1 16 -5 15 -7 30 -4 33 4
3 1 6 -6 6 -8 0 -10 -8 -6 -22z"/>
<path d="M2438 2543 c7 -3 16 -2 19 1 4 3 -2 6 -13 5 -11 0 -14 -3 -6 -6z"/>
<path d="M2372 2428 c-7 -7 -12 -17 -12 -22 0 -6 5 -3 11 7 13 22 46 22 58 -1
12 -22 3 -38 -24 -45 -16 -4 -15 -5 6 -6 32 -1 44 28 22 58 -16 23 -43 27 -61
9z"/>
<path d="M4420 2425 c-19 -22 -8 -25 13 -3 9 10 13 18 8 18 -5 0 -14 -7 -21
-15z"/>
<path d="M2474 2414 c-18 -14 -18 -15 4 -4 12 6 22 13 22 15 0 8 -5 6 -26 -11z"/>
<path d="M4331 2399 c-1 -19 26 -45 36 -35 3 3 1 6 -6 6 -6 0 -16 10 -21 23
-6 15 -9 17 -9 6z"/>
<path d="M4390 2375 c-8 -9 -8 -15 -2 -15 12 0 26 19 19 26 -2 2 -10 -2 -17
-11z"/>
<path d="M2358 2373 c7 -3 16 -2 19 1 4 3 -2 6 -13 5 -11 0 -14 -3 -6 -6z"/>
<path d="M2468 2353 c7 -3 16 -2 19 1 4 3 -2 6 -13 5 -11 0 -14 -3 -6 -6z"/>
<path d="M3070 1314 c0 -24 4 -34 13 -31 6 2 12 9 11 15 -1 7 -2 21 -2 32 -3
35 -22 21 -22 -16z"/>
<path d="M3728 1343 c-10 -2 -18 -8 -18 -13 0 -5 7 -7 16 -3 14 5 15 1 9 -27
-6 -28 -5 -32 10 -27 9 4 21 7 26 7 5 0 9 4 9 10 0 5 -7 7 -16 3 -14 -5 -15
-1 -9 25 7 32 5 34 -27 25z"/>
<path d="M3107 1333 c-7 -12 4 -73 13 -73 5 0 18 14 30 30 21 29 16 42 -8 18
-9 -9 -12 -8 -12 4 0 19 -16 33 -23 21z"/>
<path d="M3620 1310 c-13 -8 -13 -10 2 -10 15 0 16 -4 7 -26 -12 -33 -6 -40
23 -26 18 8 19 11 6 11 -15 1 -16 5 -8 27 6 14 10 27 10 30 0 7 -25 4 -40 -6z"/>
<path d="M3214 1285 c-8 -32 1 -55 22 -55 13 0 14 3 4 15 -10 12 -10 15 0 15
10 0 10 3 0 15 -10 12 -9 15 4 15 10 0 14 5 11 10 -11 19 -35 10 -41 -15z"/>
<path d="M3541 1268 c-1 -21 4 -38 9 -38 12 0 12 27 0 55 -7 16 -9 13 -9 -17z"/>
<path d="M3316 1268 c-11 -42 -7 -49 21 -46 23 2 28 8 30 36 2 28 0 32 -21 32
-16 0 -26 -7 -30 -22z m34 2 c0 -5 -4 -10 -10 -10 -5 0 -10 5 -10 10 0 6 5 10
10 10 6 0 10 -4 10 -10z m0 -30 c0 -5 -4 -10 -10 -10 -5 0 -10 5 -10 10 0 6 5
10 10 10 6 0 10 -4 10 -10z"/>
<path d="M3430 1256 c0 -20 5 -36 11 -36 5 0 8 4 5 9 -3 5 4 11 15 14 28 7 21
41 -9 45 -19 3 -22 -1 -22 -32z m35 14 c3 -5 -1 -10 -9 -10 -9 0 -16 5 -16 10
0 6 4 10 9 10 6 0 13 -4 16 -10z"/>
</g>
</svg>
